<svg aria-hidden="true" style="width:0;height:0;position:absolute;overflow:hidden" xmlns="http://www.w3.org/2000/svg"><defs><symbol id="arrow" viewBox="0 0 21 32"><path stroke-linejoin="round" stroke-linecap="round" stroke-width="5.333" d="M4.31 4.267 16.117 16 4.31 27.733"/></symbol><symbol id="arrow-right" viewBox="0 0 32 32"><path d="M12.44 6.44c.271-.271.646-.439 1.06-.439s.789.168 1.06.439l8.5 8.5c.271.271.439.646.439 1.06s-.168.789-.439 1.06l-8.5 8.5a1.5 1.5 0 0 1-2.12-2.12l-.001.001 7.44-7.44-7.44-7.44C12.168 8.29 12 7.915 12 7.501s.168-.789.439-1.06z"/></symbol><symbol id="close-line" viewBox="0 0 32 32"><path d="m17.254 16 7.369-7.369a.886.886 0 0 0-.047-1.207.89.89 0 0 0-1.207-.047L16 14.746 8.631 7.368A.892.892 0 0 0 7.369 8.63l7.378 7.369-7.378 7.369a.891.891 0 0 0-.05 1.304.906.906 0 0 0 .663.26.88.88 0 0 0 .641-.31l7.378-7.369 7.369 7.369a.886.886 0 0 0 1.207-.047.893.893 0 0 0 .047-1.207l-7.369-7.369z"/></symbol></defs></svg>