<svg width="56" height="61" viewBox="0 0 56 61" fill="none" xmlns="http://www.w3.org/2000/svg">
<path d="M27.9285 25.6984C30.802 18.0114 24.8514 13.8036 20.907 11.0381C20.1528 10.4731 19.3986 9.94528 18.7877 9.46205C17.6959 8.55396 16.8916 7.35591 16.4705 6.01035C16.0493 4.66479 16.029 3.22833 16.412 1.87173C16.4513 1.72979 16.4503 1.57992 16.4091 1.4385C16.3679 1.29707 16.2881 1.16952 16.1784 1.06978C16.0686 0.970041 15.9332 0.901949 15.7869 0.872938C15.6405 0.843928 15.4889 0.855115 15.3486 0.905279C14.0202 1.42333 12.7851 2.14878 11.6907 3.05377C10.6392 3.85289 9.78727 4.87876 9.20028 6.05272C8.6133 7.22667 8.30682 8.51753 8.30438 9.82633C7.56064 10.4043 6.90308 11.0825 6.35102 11.841C5.33683 13.2057 4.82834 14.872 4.9105 16.5617C3.70244 17.6555 2.8027 19.0393 2.29908 20.5781C1.79546 22.1169 1.70516 23.7581 2.03702 25.3415C1.55642 25.6278 1.18442 26.0616 0.978136 26.5764C0.771855 27.0912 0.74269 27.6585 0.895139 28.1912C1.04759 28.7239 1.37323 29.1925 1.82203 29.5252C2.27082 29.8578 2.81798 30.036 3.37949 30.0325H3.43228V34.4038C3.43228 34.8474 3.61106 35.2729 3.9293 35.5866C4.24753 35.9003 4.67917 36.0765 5.12922 36.0765H6.44906L8.59853 54.439C8.64321 54.8478 8.83972 55.2258 9.15022 55.5003C9.46073 55.7748 9.86327 55.9264 10.2804 55.9258H19.2251C19.6426 55.9249 20.0452 55.7731 20.3566 55.499C20.668 55.2249 20.8665 54.8478 20.9145 54.439L23.064 36.0765H24.3838C24.8339 36.0765 25.2655 35.9003 25.5837 35.5866C25.902 35.2729 26.0808 34.8474 26.0808 34.4038V30.0325H26.1336C26.8156 30.0325 27.4698 29.7654 27.9521 29.29C28.4344 28.8146 28.7053 28.1698 28.7053 27.4974C28.7088 27.1619 28.6438 26.8291 28.5142 26.5187C28.3847 26.2084 28.1932 25.9269 27.9511 25.6909L27.9285 25.6984ZM8.56835 11.7518C9.65439 15.7737 13.8477 17.3572 17.6715 18.7697C17.7743 18.8321 17.8898 18.8713 18.0097 18.8848C18.1297 18.8982 18.2511 18.8854 18.3655 18.8473C18.4798 18.8092 18.5843 18.7468 18.6714 18.6644C18.7585 18.5821 18.8262 18.4818 18.8696 18.3707C18.9129 18.2597 18.931 18.1406 18.9224 18.0219C18.9138 17.9032 18.8788 17.7879 18.8198 17.684C18.7609 17.5802 18.6795 17.4904 18.5814 17.421C18.4833 17.3517 18.3709 17.3045 18.2522 17.2828C14.1343 15.744 10.2502 14.3092 9.95607 10.198C9.88714 9.06795 10.1023 7.93856 10.5826 6.91014C11.0628 5.88172 11.7932 4.98607 12.7089 4.30271C13.2826 3.8322 13.8985 3.41416 14.5491 3.05377C14.5072 3.56838 14.5072 4.08547 14.5491 4.60008C14.6364 5.77815 14.9631 6.92689 15.5099 7.97797C16.0567 9.02905 16.8123 9.96101 17.7318 10.7184C18.3578 11.2463 19.1346 11.789 19.9944 12.3688C21.9779 13.7739 24.233 15.3425 25.6659 17.4687C26.4305 18.5591 26.9062 19.8207 27.0498 21.1386C27.1934 22.4565 27.0002 23.7889 26.488 25.0144H26.1713H23.1545C16.2838 25.0144 8.38735 23.141 6.82616 17.8924C6.51646 16.8127 6.51899 15.6691 6.83348 14.5906C7.14798 13.5122 7.76192 12.5418 8.60605 11.789L8.56835 11.7518ZM14.7527 37.095L17.2718 39.578L14.7527 42.0611L12.2337 39.5632L14.7527 37.095ZM20.5299 43.6148L18.4483 45.6667L15.9293 43.1836L18.4483 40.708L20.6355 42.8565L20.5299 43.6148ZM14.7527 49.3094L12.2337 46.8264L14.7527 44.3433L17.2718 46.8264L14.7527 49.3094ZM13.5988 43.1985L11.0798 45.6815L8.98315 43.6148L8.89265 42.8714L11.0798 40.7229L13.5988 43.1985ZM9.91837 46.8264L9.41305 47.3245L9.28482 46.1945L9.91837 46.8264ZM9.65439 49.3689L11.0798 47.9638L13.8477 50.7145C13.8619 50.77 13.8795 50.8246 13.9005 50.878H9.82784L9.65439 49.3689ZM18.4332 47.9638L19.8587 49.3689L19.6852 50.8557H15.4994L18.4332 47.9638ZM20.0924 47.3245L19.5871 46.8264L20.2282 46.1945L20.0924 47.3245ZM20.8466 40.827L19.5871 39.5632L21.186 37.9871L20.8466 40.827ZM18.4257 38.4332L16.0349 36.084H20.8165L18.4257 38.4332ZM11.0723 38.4332L8.68148 36.084H13.4631L11.0723 38.4332ZM19.2176 54.3126H10.2804C10.2669 54.3111 10.2544 54.3051 10.2448 54.2956C10.2353 54.2862 10.2292 54.2738 10.2276 54.2606L10.0164 52.4764H19.4891L19.2855 54.2606C19.2836 54.275 19.2764 54.2883 19.2653 54.2979C19.2542 54.3075 19.2399 54.3127 19.2251 54.3126H19.2176ZM26.1336 28.4118H23.509C23.3949 28.401 23.2798 28.4139 23.171 28.4495C23.0623 28.4851 22.9623 28.5427 22.8775 28.6187C22.7927 28.6946 22.7249 28.7872 22.6786 28.8905C22.6322 28.9938 22.6082 29.1055 22.6082 29.2185C22.6082 29.3314 22.6322 29.4431 22.6786 29.5464C22.7249 29.6497 22.7927 29.7423 22.8775 29.8182C22.9623 29.8942 23.0623 29.9518 23.171 29.9874C23.2798 30.0231 23.3949 30.0359 23.509 30.0251H24.4441V34.3964C24.4423 34.4108 24.4352 34.4241 24.424 34.4337C24.4129 34.4433 24.3986 34.4485 24.3838 34.4484H5.09905C5.08427 34.4485 5.06996 34.4433 5.05884 34.4337C5.04772 34.4241 5.04057 34.4108 5.03872 34.3964V30.0251H19.9793C20.1828 30.0058 20.3717 29.9125 20.5091 29.7633C20.6466 29.6142 20.7227 29.42 20.7227 29.2185C20.7227 29.017 20.6466 28.8227 20.5091 28.6736C20.3717 28.5244 20.1828 28.4311 19.9793 28.4118H3.38703C3.25767 28.4233 3.1273 28.4081 3.00423 28.3672C2.88116 28.3263 2.76807 28.2605 2.6722 28.1742C2.57632 28.0878 2.49976 27.9827 2.44738 27.8655C2.39499 27.7484 2.36792 27.6218 2.36792 27.4937C2.36792 27.3657 2.39499 27.2391 2.44738 27.1219C2.49976 27.0048 2.57632 26.8996 2.6722 26.8133C2.76807 26.7269 2.88116 26.6612 3.00423 26.6202C3.1273 26.5793 3.25767 26.5641 3.38703 26.5756H5.09905C5.30252 26.5563 5.49141 26.463 5.62886 26.3139C5.76631 26.1647 5.84247 25.9705 5.84247 25.769C5.84247 25.5675 5.76631 25.3732 5.62886 25.2241C5.49141 25.075 5.30252 24.9817 5.09905 24.9624H3.59066C3.37462 23.8312 3.40972 22.6674 3.69354 21.5509C3.97736 20.4344 4.50317 19.3917 5.2348 18.4946C5.76273 20.1153 7.12029 22.3307 10.5142 24.0926C13.7044 25.7355 17.9279 26.5756 23.064 26.5756H26.0808C26.2101 26.5641 26.3405 26.5793 26.4636 26.6202C26.5866 26.6612 26.6997 26.7269 26.7956 26.8133C26.8914 26.8996 26.968 27.0048 27.0204 27.1219C27.0728 27.2391 27.0998 27.3657 27.0998 27.4937C27.0998 27.6218 27.0728 27.7484 27.0204 27.8655C26.968 27.9827 26.8914 28.0878 26.7956 28.1742C26.6997 28.2605 26.5866 28.3263 26.4636 28.3672C26.3405 28.4081 26.2101 28.4233 26.0808 28.4118H26.1336Z" fill="#F8D24E"/>
<path d="M31.4585 50.2145L30.8644 51.1261L30.8763 51.1337L31.4585 50.2145ZM37.8546 50.5226L38.9423 50.4985L38.9143 49.2393L37.6726 49.45L37.8546 50.5226ZM37.929 53.8694L38.2059 54.9216L39.0358 54.7032L39.0167 53.8453L37.929 53.8694ZM29.5354 54.0288L29.7795 52.9686L29.7729 52.9671L29.5354 54.0288ZM25.3917 52.1801L26.0956 51.3505L26.0939 51.3491L25.3917 52.1801ZM23.8936 48.7802L24.9816 48.7856V48.7802H23.8936ZM24.4142 46.4002L23.4379 45.92L23.4372 45.9215L24.4142 46.4002ZM27.7504 43.5527L28.1364 44.57L28.1404 44.5684L27.7504 43.5527ZM38.439 43.2765L39.5237 43.361L39.5952 42.4423L38.7008 42.2205L38.439 43.2765ZM38.1733 46.6871L37.9707 47.756L39.1638 47.9821L39.258 46.7715L38.1733 46.6871ZM35.2728 45.291C33.64 45.291 32.2675 45.4654 31.2649 45.9063C30.7511 46.1322 30.2837 46.4501 29.9433 46.8991C29.5923 47.3621 29.4249 47.9017 29.4249 48.472H31.6008C31.6008 48.3447 31.6317 48.2738 31.6774 48.2136C31.7337 48.1393 31.8612 48.0211 32.1408 47.8982C32.7248 47.6414 33.7323 47.4669 35.2728 47.4669V45.291ZM29.4249 48.472C29.4249 49.5916 29.9267 50.5149 30.8644 51.126L32.0525 49.303C31.7294 49.0925 31.6008 48.8541 31.6008 48.472H29.4249ZM30.8763 51.1337C31.7653 51.6967 32.9375 51.9081 34.2528 51.9081V49.7321C33.1172 49.7321 32.4266 49.5398 32.0406 49.2954L30.8763 51.1337ZM34.2528 51.9081C35.5439 51.9081 36.8054 51.8042 38.0366 51.5953L37.6726 49.45C36.5663 49.6377 35.4267 49.7321 34.2528 49.7321V51.9081ZM36.7669 50.5468L36.8413 53.8936L39.0167 53.8453L38.9423 50.4985L36.7669 50.5468ZM37.6521 52.8173C36.4082 53.1446 35.0363 53.3127 33.5303 53.3127V55.4887C35.1976 55.4887 36.7581 55.3026 38.2059 54.9216L37.6521 52.8173ZM33.5303 53.3127C31.9935 53.3127 30.7497 53.192 29.7795 52.9686L29.2912 55.0891C30.4743 55.3615 31.8938 55.4887 33.5303 55.4887V53.3127ZM29.7729 52.9671C28.7344 52.7348 27.9844 52.488 27.4841 52.2437L26.5292 54.199C27.2473 54.5496 28.183 54.8412 29.2979 55.0906L29.7729 52.9671ZM27.4841 52.2437C26.9478 51.9818 26.4872 51.6828 26.0956 51.3505L24.6878 53.0097C25.2311 53.4707 25.8472 53.8659 26.5292 54.199L27.4841 52.2437ZM26.0939 51.3491C25.3547 50.7244 24.9759 49.9079 24.9816 48.7856L22.8056 48.7747C22.7971 50.4857 23.4171 51.9359 24.6894 53.0111L26.0939 51.3491ZM24.9816 48.7802C24.9816 48.0488 25.1251 47.422 25.3912 46.8789L23.4372 45.9215C23.0092 46.795 22.8056 47.7549 22.8056 48.7802H24.9816ZM25.3905 46.8803C25.8854 45.874 26.7594 45.0925 28.1364 44.57L27.3644 42.5355C25.5681 43.2172 24.2179 44.334 23.4379 45.92L25.3905 46.8803ZM28.1404 44.5684C29.5879 44.0127 31.2033 43.727 32.9991 43.727V41.551C30.9699 41.551 29.0861 41.8745 27.3604 42.537L28.1404 44.5684ZM32.9991 43.727C34.8305 43.727 36.5554 43.9304 38.1771 44.3325L38.7008 42.2205C36.8942 41.7726 34.9925 41.551 32.9991 41.551V43.727ZM37.3543 43.192L37.0886 46.6026L39.258 46.7715L39.5237 43.361L37.3543 43.192ZM38.376 45.6181C37.244 45.4036 36.2073 45.291 35.2728 45.291V47.4669C36.0382 47.4669 36.9352 47.5597 37.9707 47.756L38.376 45.6181ZM48.9915 47.3564L48.9855 48.4444L50.0912 48.4505L50.0795 47.3449L48.9915 47.3564ZM48.524 45.9433L47.7837 46.7407L47.7931 46.7492L48.524 45.9433ZM45.8147 46.0496L46.5682 46.8345L46.5762 46.8266L45.8147 46.0496ZM45.156 47.3352L44.0824 47.1587L43.8757 48.4161L45.1499 48.4231L45.156 47.3352ZM53.1565 53.1363L53.8137 54.0034L54.2048 53.7069L54.2414 53.2175L53.1565 53.1363ZM50.8084 54.0076L50.5745 52.945L50.5681 52.9464L50.8084 54.0076ZM42.6485 53.7101L42.2775 54.7329L42.2864 54.736L42.6485 53.7101ZM40.7892 52.722L40.1139 53.575L40.1204 53.5801L40.127 53.5852L40.7892 52.722ZM39.5461 51.1601L38.5708 51.6424L38.573 51.6467L39.5461 51.1601ZM40.821 44.5621L41.5446 45.3747L41.5451 45.3742L40.821 44.5621ZM50.7659 43.3827L51.201 42.3855L51.1908 42.3812L50.7659 43.3827ZM53.2627 45.6777L52.2842 46.1534L52.2872 46.1594L53.2627 45.6777ZM53.6877 47.5796L54.7728 47.6585L54.7757 47.6191V47.5796H53.6877ZM53.5602 49.3326L53.5548 50.4206L54.5716 50.4256L54.6453 49.4116L53.5602 49.3326ZM44.9435 49.2901L44.9488 48.2022L43.5295 48.1952L43.8915 49.5676L44.9435 49.2901ZM46.176 50.8095L45.6406 51.7567L45.645 51.7591L46.176 50.8095ZM52.7846 50.4376V49.3496H52.5672L52.3665 49.4332L52.7846 50.4376ZM53.3583 50.4376L54.4433 50.5188L54.5307 49.3496H53.3583V50.4376ZM50.0795 47.3449C50.0711 46.5579 49.8902 45.7136 49.255 45.1374L47.7931 46.7492C47.7803 46.7376 47.8053 46.7515 47.8364 46.8455C47.8694 46.9451 47.9009 47.1115 47.9036 47.368L50.0795 47.3449ZM49.2644 45.1461C48.6934 44.6159 47.9443 44.441 47.2066 44.441V46.6169C47.6305 46.6169 47.7597 46.7183 47.7837 46.7406L49.2644 45.1461ZM47.2066 44.441C46.3963 44.441 45.6428 44.6948 45.0532 45.2725L46.5762 46.8266C46.695 46.7102 46.8693 46.6169 47.2066 46.6169V44.441ZM45.0613 45.2647C44.5257 45.7789 44.2028 46.4262 44.0824 47.1587L46.2295 47.5117C46.2791 47.21 46.3954 47.0003 46.5682 46.8344L45.0613 45.2647ZM45.1499 48.4231L48.9855 48.4444L48.9976 46.2685L45.162 46.2472L45.1499 48.4231ZM52.4992 52.2693C52.2607 52.4501 51.679 52.7019 50.5745 52.945L51.0423 55.0701C52.1902 54.8174 53.1739 54.4884 53.8137 54.0034L52.4992 52.2693ZM50.5681 52.9464C49.514 53.1851 48.5003 53.3021 47.5253 53.3021V55.478C48.6753 55.478 49.8503 55.34 51.0486 55.0687L50.5681 52.9464ZM47.5253 53.3021C46.5001 53.3021 45.6556 53.2537 44.9824 53.1631L44.6921 55.3196C45.4921 55.4273 46.4397 55.478 47.5253 55.478V53.3021ZM44.9824 53.1631C44.3219 53.0741 43.6649 52.9151 43.0106 52.6841L42.2864 54.736C43.0771 55.0151 43.8793 55.2102 44.6921 55.3196L44.9824 53.1631ZM43.0195 52.6873C42.3834 52.4566 41.8659 52.1767 41.4514 51.8587L40.127 53.5852C40.7466 54.0605 41.4686 54.4394 42.2775 54.7328L43.0195 52.6873ZM41.4645 51.8689C41.091 51.5732 40.7736 51.1824 40.5192 50.6736L38.573 51.6467C38.956 52.4128 39.4674 53.0632 40.1139 53.575L41.4645 51.8689ZM40.5213 50.6778C40.2924 50.215 40.1559 49.6192 40.1559 48.8545H37.98C37.98 49.8748 38.1622 50.8161 38.5708 51.6424L40.5213 50.6778ZM40.1559 48.8545C40.1559 48.0891 40.2939 47.4132 40.5548 46.8121L38.5586 45.9458C38.1679 46.8463 37.98 47.8208 37.98 48.8545H40.1559ZM40.5548 46.8121C40.829 46.18 41.165 45.7126 41.5446 45.3747L40.0975 43.7495C39.4429 44.3324 38.936 45.0762 38.5586 45.9458L40.5548 46.8121ZM41.5451 45.3742C42.7144 44.3316 44.4982 43.727 47.0684 43.727V41.551C44.1847 41.551 41.8035 42.2285 40.097 43.75L41.5451 45.3742ZM47.0684 43.727C48.2218 43.727 49.3095 43.9467 50.341 44.3843L51.1908 42.3812C49.8848 41.8271 48.5075 41.551 47.0684 41.551V43.727ZM50.3307 44.3799C51.2935 44.8001 51.9158 45.3955 52.2842 46.1534L54.2412 45.2021C53.618 43.9199 52.5757 42.9854 51.201 42.3856L50.3307 44.3799ZM52.2872 46.1594C52.4904 46.5709 52.5997 47.038 52.5997 47.5796H54.7757C54.7757 46.7327 54.6017 45.932 54.2382 45.196L52.2872 46.1594ZM52.6026 47.5006L52.4751 49.2537L54.6453 49.4116L54.7728 47.6585L52.6026 47.5006ZM53.5656 48.2447L44.9488 48.2022L44.9381 50.3781L53.5548 50.4206L53.5656 48.2447ZM43.8915 49.5676C44.1458 50.5321 44.7679 51.2634 45.6406 51.7567L46.7113 49.8623C46.2807 49.619 46.0811 49.3374 45.9955 49.0127L43.8915 49.5676ZM45.645 51.7591C46.5274 52.2525 47.6309 52.45 48.864 52.45V50.274C47.8306 50.274 47.142 50.1031 46.7069 49.8599L45.645 51.7591ZM48.864 52.45C50.1873 52.45 51.6407 52.0923 53.2027 51.4421L52.3665 49.4332C50.9677 50.0155 49.8074 50.274 48.864 50.274V52.45ZM52.7846 51.5256H53.3583V49.3496H52.7846V51.5256ZM52.2734 50.3565L52.0715 53.0552L54.2414 53.2175L54.4433 50.5188L52.2734 50.3565Z" fill="#F8D24E"/>
</svg>
