<svg aria-hidden="true" style="position: absolute; width: 0; height: 0; overflow: hidden;" version="1.1" xmlns="http://www.w3.org/2000/svg" xmlns:xlink="http://www.w3.org/1999/xlink">
<defs>
<symbol id="arrow" viewBox="0 0 21 32">
<path stroke-linejoin="round" stroke-linecap="round" stroke-miterlimit="4" stroke-width="5.3333" d="M4.31 4.267l11.807 11.733-11.807 11.733"></path>
</symbol>
<symbol id="arrow-right" viewBox="0 0 32 32">
<path d="M12.44 6.44c0.271-0.271 0.646-0.439 1.060-0.439s0.789 0.168 1.060 0.439l8.5 8.5c0.271 0.271 0.439 0.646 0.439 1.060s-0.168 0.789-0.439 1.060l-8.5 8.5c-0.267 0.249-0.627 0.403-1.023 0.403-0.828 0-1.5-0.672-1.5-1.5 0-0.396 0.153-0.755 0.403-1.023l-0.001 0.001 7.44-7.44-7.44-7.44c-0.271-0.271-0.439-0.646-0.439-1.060s0.168-0.789 0.439-1.060l-0 0z"></path>
</symbol>
<symbol id="close-line" viewBox="0 0 32 32">
<path d="M17.254 16l7.369-7.369c0.146-0.17 0.222-0.389 0.213-0.613s-0.101-0.436-0.26-0.594c-0.158-0.158-0.37-0.251-0.594-0.26s-0.442 0.067-0.613 0.213l-7.369 7.369-7.369-7.378c-0.167-0.167-0.394-0.261-0.631-0.261s-0.464 0.094-0.631 0.261c-0.167 0.167-0.261 0.394-0.261 0.631s0.094 0.464 0.261 0.631l7.378 7.369-7.378 7.369c-0.093 0.080-0.169 0.178-0.222 0.288s-0.083 0.23-0.088 0.353 0.016 0.245 0.061 0.359c0.045 0.114 0.112 0.218 0.199 0.304s0.19 0.154 0.304 0.199c0.114 0.045 0.236 0.065 0.359 0.061s0.243-0.035 0.353-0.088c0.11-0.053 0.208-0.129 0.288-0.222l7.378-7.369 7.369 7.369c0.17 0.146 0.389 0.222 0.613 0.213s0.436-0.101 0.594-0.26c0.158-0.158 0.251-0.371 0.26-0.594s-0.068-0.443-0.213-0.613l-7.369-7.369z"></path>
</symbol>
</defs>
</svg>
